<mxfile host="app.diagrams.net" agent="Mozilla/5.0 (Windows NT 10.0; Win64; x64) AppleWebKit/537.36 (KHTML, like Gecko) Chrome/130.0.0.0 Safari/537.36" version="24.8.4">
  <diagram name="architektura" id="5f0bae14-7c28-e335-631c-24af17079c00">
    <mxGraphModel dx="2954" dy="1132" grid="1" gridSize="10" guides="1" tooltips="1" connect="1" arrows="1" fold="1" page="1" pageScale="1" pageWidth="1169" pageHeight="827" background="none" math="0" shadow="0">
      <root>
        <mxCell id="0" />
        <mxCell id="1" parent="0" />
        <mxCell id="gY4HQTh1pNE1RITPi49o-62" value="" style="rounded=1;whiteSpace=wrap;html=1;fillColor=none;fontSize=20;strokeWidth=2;arcSize=5;" parent="1" vertex="1">
          <mxGeometry x="20" y="50" width="990" height="560" as="geometry" />
        </mxCell>
        <mxCell id="CjUv-Lag4axJxPPeYO3W-6" value="" style="rounded=1;whiteSpace=wrap;html=1;strokeColor=default;gradientColor=none;fillColor=none;fontSize=20;strokeWidth=2;arcSize=5;" parent="1" vertex="1">
          <mxGeometry x="362" y="110" width="298" height="480" as="geometry" />
        </mxCell>
        <mxCell id="gY4HQTh1pNE1RITPi49o-69" value="" style="rounded=1;whiteSpace=wrap;html=1;dashed=1;fillColor=none;fontSize=20;strokeWidth=2;arcSize=5;" parent="1" vertex="1">
          <mxGeometry x="40" y="450" width="261" height="140" as="geometry" />
        </mxCell>
        <mxCell id="gY4HQTh1pNE1RITPi49o-66" value="" style="rounded=1;whiteSpace=wrap;html=1;dashed=1;fillColor=none;fontSize=20;strokeWidth=2;arcSize=5;" parent="1" vertex="1">
          <mxGeometry x="40" y="110" width="261" height="290" as="geometry" />
        </mxCell>
        <mxCell id="gY4HQTh1pNE1RITPi49o-2" value="Backend aplikacji &lt;br&gt;Harmony Home Net" style="text;strokeColor=none;fillColor=none;html=1;fontSize=20;fontStyle=1;verticalAlign=middle;align=center;fontFamily=Helvetica;strokeWidth=2;" parent="1" vertex="1">
          <mxGeometry x="334" y="131" width="350" height="30" as="geometry" />
        </mxCell>
        <mxCell id="gY4HQTh1pNE1RITPi49o-5" value="&lt;font style=&quot;font-size: 20px;&quot;&gt;Warstwa logiki biznesowej&lt;/font&gt;" style="rounded=0;whiteSpace=wrap;html=1;fillColor=none;fontSize=20;strokeWidth=2;" parent="1" vertex="1">
          <mxGeometry x="382" y="340" width="180" height="60" as="geometry" />
        </mxCell>
        <mxCell id="gY4HQTh1pNE1RITPi49o-6" value="&lt;font style=&quot;font-size: 20px;&quot;&gt;Warstwa dostępu do danych&lt;/font&gt;" style="rounded=0;whiteSpace=wrap;html=1;fontFamily=Helvetica;fillColor=none;fontSize=20;strokeWidth=2;" parent="1" vertex="1">
          <mxGeometry x="382" y="479" width="180" height="60" as="geometry" />
        </mxCell>
        <mxCell id="gY4HQTh1pNE1RITPi49o-7" value="" style="endArrow=classic;startArrow=classic;html=1;rounded=0;entryX=0.5;entryY=1;entryDx=0;entryDy=0;fontSize=20;strokeWidth=2;" parent="1" source="gY4HQTh1pNE1RITPi49o-6" target="gY4HQTh1pNE1RITPi49o-5" edge="1">
          <mxGeometry width="50" height="50" relative="1" as="geometry">
            <mxPoint x="462" y="384" as="sourcePoint" />
            <mxPoint x="462" y="344" as="targetPoint" />
          </mxGeometry>
        </mxCell>
        <mxCell id="gY4HQTh1pNE1RITPi49o-8" value="" style="endArrow=classic;startArrow=classic;html=1;rounded=0;exitX=0.5;exitY=0;exitDx=0;exitDy=0;fontSize=20;strokeWidth=2;entryX=0.5;entryY=1;entryDx=0;entryDy=0;" parent="1" source="gY4HQTh1pNE1RITPi49o-5" target="MTYXGRcquk4eYqqXAsn6-1" edge="1">
          <mxGeometry width="50" height="50" relative="1" as="geometry">
            <mxPoint x="462" y="384" as="sourcePoint" />
            <mxPoint x="472" y="290" as="targetPoint" />
          </mxGeometry>
        </mxCell>
        <mxCell id="gY4HQTh1pNE1RITPi49o-9" value="" style="rounded=1;whiteSpace=wrap;html=1;strokeColor=default;gradientColor=none;fillColor=none;fontSize=20;strokeWidth=2;arcSize=8;" parent="1" vertex="1">
          <mxGeometry x="782" y="116.5" width="209" height="190" as="geometry" />
        </mxCell>
        <mxCell id="gY4HQTh1pNE1RITPi49o-10" value="Frontend aplikacji&lt;br&gt;Harmony Home Net" style="text;strokeColor=none;fillColor=none;html=1;fontSize=20;fontStyle=1;verticalAlign=middle;align=center;fontFamily=Helvetica;strokeWidth=2;" parent="1" vertex="1">
          <mxGeometry x="833.88" y="126" width="100" height="40" as="geometry" />
        </mxCell>
        <mxCell id="gY4HQTh1pNE1RITPi49o-11" value="&lt;font style=&quot;font-size: 20px;&quot;&gt;Warstwa prezentacji&lt;/font&gt;" style="rounded=0;whiteSpace=wrap;html=1;fillColor=none;fontSize=20;strokeWidth=2;" parent="1" vertex="1">
          <mxGeometry x="801.5" y="200" width="145" height="60" as="geometry" />
        </mxCell>
        <mxCell id="gY4HQTh1pNE1RITPi49o-17" value="&lt;span style=&quot;font-weight: 700; background-color: initial;&quot;&gt;Bazy Danych&lt;br&gt;PostgreSQL&lt;/span&gt;" style="rounded=1;whiteSpace=wrap;html=1;fillColor=none;fontSize=20;strokeWidth=2;arcSize=6;verticalAlign=top;dashed=1;" parent="1" vertex="1">
          <mxGeometry x="780" y="420" width="210" height="170" as="geometry" />
        </mxCell>
        <mxCell id="gY4HQTh1pNE1RITPi49o-19" value="" style="image;aspect=fixed;html=1;points=[];align=center;fontSize=20;image=img/lib/azure2/databases/Azure_Database_PostgreSQL_Server.svg;strokeWidth=2;" parent="1" vertex="1">
          <mxGeometry x="836.5" y="481.67" width="47.49" height="63.33" as="geometry" />
        </mxCell>
        <mxCell id="gY4HQTh1pNE1RITPi49o-20" value="" style="endArrow=classic;startArrow=classic;html=1;rounded=0;exitX=1;exitY=0.5;exitDx=0;exitDy=0;fontSize=20;strokeWidth=2;entryX=-0.005;entryY=0.442;entryDx=0;entryDy=0;entryPerimeter=0;" parent="1" source="gY4HQTh1pNE1RITPi49o-6" target="gY4HQTh1pNE1RITPi49o-19" edge="1">
          <mxGeometry width="50" height="50" relative="1" as="geometry">
            <mxPoint x="451" y="420" as="sourcePoint" />
            <mxPoint x="830" y="509" as="targetPoint" />
          </mxGeometry>
        </mxCell>
        <mxCell id="gY4HQTh1pNE1RITPi49o-26" value="&lt;b&gt;Systemy urządzeń&amp;nbsp;&lt;/b&gt;&lt;div style=&quot;border-color: var(--border-color);&quot;&gt;&lt;b&gt;zewnętrznych&lt;/b&gt;&lt;div style=&quot;border-color: var(--border-color);&quot;&gt;&lt;b&gt;np.: liczniki&lt;/b&gt;&lt;/div&gt;&lt;/div&gt;" style="rounded=1;whiteSpace=wrap;html=1;fillColor=none;dashed=1;fontSize=20;strokeWidth=2;" parent="1" vertex="1">
          <mxGeometry x="60" y="230" width="190" height="90" as="geometry" />
        </mxCell>
        <mxCell id="gY4HQTh1pNE1RITPi49o-28" value="" style="rounded=1;whiteSpace=wrap;html=1;fillColor=none;dashed=1;fontSize=20;strokeWidth=2;" parent="1" vertex="1">
          <mxGeometry x="61" y="467" width="180" height="43" as="geometry" />
        </mxCell>
        <mxCell id="gY4HQTh1pNE1RITPi49o-29" value="Serwer OAuth 2&amp;nbsp;" style="text;strokeColor=none;fillColor=none;html=1;fontSize=20;fontStyle=1;verticalAlign=middle;align=center;strokeWidth=2;" parent="1" vertex="1">
          <mxGeometry x="106" y="469" width="100" height="40" as="geometry" />
        </mxCell>
        <mxCell id="gY4HQTh1pNE1RITPi49o-33" value="" style="rounded=1;whiteSpace=wrap;html=1;fillColor=none;dashed=1;fontSize=20;strokeWidth=2;" parent="1" vertex="1">
          <mxGeometry x="780.38" y="336" width="212.25" height="44" as="geometry" />
        </mxCell>
        <mxCell id="gY4HQTh1pNE1RITPi49o-34" value="Klient&lt;span style=&quot;background-color: initial;&quot;&gt;&amp;nbsp;OAuth 2&amp;nbsp;&lt;/span&gt;" style="text;strokeColor=none;fillColor=none;html=1;fontSize=20;fontStyle=1;verticalAlign=middle;align=center;strokeWidth=2;" parent="1" vertex="1">
          <mxGeometry x="801.5" y="340" width="142.5" height="30" as="geometry" />
        </mxCell>
        <mxCell id="gY4HQTh1pNE1RITPi49o-35" value="" style="endArrow=classic;startArrow=classic;html=1;rounded=0;fontSize=20;strokeWidth=2;entryX=0.5;entryY=0;entryDx=0;entryDy=0;exitX=0.579;exitY=0.961;exitDx=0;exitDy=0;exitPerimeter=0;" parent="1" source="gY4HQTh1pNE1RITPi49o-11" target="gY4HQTh1pNE1RITPi49o-33" edge="1">
          <mxGeometry width="50" height="50" relative="1" as="geometry">
            <mxPoint x="1070" y="358" as="sourcePoint" />
            <mxPoint x="883.875" y="346" as="targetPoint" />
          </mxGeometry>
        </mxCell>
        <mxCell id="gY4HQTh1pNE1RITPi49o-39" value="" style="outlineConnect=0;dashed=0;verticalLabelPosition=bottom;verticalAlign=top;align=center;html=1;shape=mxgraph.aws3.bank;fillColor=#2875e2;gradientColor=none;fontSize=20;strokeWidth=2;" parent="1" vertex="1">
          <mxGeometry x="200" y="126" width="70" height="70" as="geometry" />
        </mxCell>
        <mxCell id="gY4HQTh1pNE1RITPi49o-49" value="" style="shape=actor;whiteSpace=wrap;html=1;fontSize=20;strokeWidth=2;" parent="1" vertex="1">
          <mxGeometry x="1079" y="123" width="40" height="52" as="geometry" />
        </mxCell>
        <mxCell id="gY4HQTh1pNE1RITPi49o-50" value="" style="shape=actor;whiteSpace=wrap;html=1;fontSize=20;strokeWidth=2;" parent="1" vertex="1">
          <mxGeometry x="1079" y="217" width="40" height="52.5" as="geometry" />
        </mxCell>
        <mxCell id="gY4HQTh1pNE1RITPi49o-51" value="&lt;font style=&quot;font-size: 20px;&quot;&gt;Mieszkańcy&lt;/font&gt;" style="text;html=1;align=center;verticalAlign=middle;whiteSpace=wrap;rounded=0;fontSize=20;strokeWidth=2;" parent="1" vertex="1">
          <mxGeometry x="1069" y="175" width="60" height="31" as="geometry" />
        </mxCell>
        <mxCell id="gY4HQTh1pNE1RITPi49o-52" value="&lt;font style=&quot;font-size: 20px;&quot;&gt;Administracja&lt;/font&gt;" style="text;html=1;align=center;verticalAlign=middle;whiteSpace=wrap;rounded=0;fontSize=20;strokeWidth=2;" parent="1" vertex="1">
          <mxGeometry x="1069" y="276.5" width="60" height="30" as="geometry" />
        </mxCell>
        <mxCell id="gY4HQTh1pNE1RITPi49o-53" value="" style="endArrow=classic;startArrow=classic;html=1;rounded=0;entryX=0;entryY=0.667;entryDx=0;entryDy=0;entryPerimeter=0;exitX=1;exitY=0.208;exitDx=0;exitDy=0;fontSize=20;strokeWidth=2;exitPerimeter=0;" parent="1" source="gY4HQTh1pNE1RITPi49o-9" target="gY4HQTh1pNE1RITPi49o-49" edge="1">
          <mxGeometry width="50" height="50" relative="1" as="geometry">
            <mxPoint x="1311" y="170" as="sourcePoint" />
            <mxPoint x="1361" y="120" as="targetPoint" />
          </mxGeometry>
        </mxCell>
        <mxCell id="gY4HQTh1pNE1RITPi49o-54" value="" style="endArrow=classic;startArrow=classic;html=1;rounded=0;entryX=-0.029;entryY=0.672;entryDx=0;entryDy=0;entryPerimeter=0;exitX=1.005;exitY=0.687;exitDx=0;exitDy=0;fontSize=20;strokeWidth=2;exitPerimeter=0;" parent="1" source="gY4HQTh1pNE1RITPi49o-9" target="gY4HQTh1pNE1RITPi49o-50" edge="1">
          <mxGeometry width="50" height="50" relative="1" as="geometry">
            <mxPoint x="1301" y="320" as="sourcePoint" />
            <mxPoint x="1351" y="270" as="targetPoint" />
          </mxGeometry>
        </mxCell>
        <mxCell id="gY4HQTh1pNE1RITPi49o-57" value="" style="endArrow=classic;startArrow=classic;html=1;rounded=0;exitX=1;exitY=0.5;exitDx=0;exitDy=0;fontSize=20;strokeWidth=2;" parent="1" source="MTYXGRcquk4eYqqXAsn6-1" target="gY4HQTh1pNE1RITPi49o-43" edge="1">
          <mxGeometry width="50" height="50" relative="1" as="geometry">
            <mxPoint x="515.0423999999998" y="231.33199999999988" as="sourcePoint" />
            <mxPoint x="567" y="231.12152625259887" as="targetPoint" />
          </mxGeometry>
        </mxCell>
        <mxCell id="gY4HQTh1pNE1RITPi49o-43" value="&lt;font style=&quot;font-size: 20px;&quot;&gt;Checklist&lt;br style=&quot;font-size: 20px;&quot;&gt;security&lt;/font&gt;" style="sketch=0;outlineConnect=0;fontColor=#232F3E;gradientColor=none;strokeColor=#232F3E;fillColor=none;dashed=0;verticalLabelPosition=bottom;verticalAlign=top;align=center;html=1;fontSize=20;fontStyle=0;aspect=fixed;shape=mxgraph.aws4.resourceIcon;resIcon=mxgraph.aws4.checklist_security;strokeWidth=2;" parent="1" vertex="1">
          <mxGeometry x="581" y="200" width="60" height="60" as="geometry" />
        </mxCell>
        <mxCell id="gY4HQTh1pNE1RITPi49o-59" value="Bankowość" style="text;strokeColor=none;fillColor=none;html=1;fontSize=20;fontStyle=1;verticalAlign=middle;align=center;strokeWidth=2;" parent="1" vertex="1">
          <mxGeometry x="70" y="126" width="100" height="40" as="geometry" />
        </mxCell>
        <mxCell id="gY4HQTh1pNE1RITPi49o-61" value="" style="endArrow=classic;startArrow=classic;html=1;rounded=0;fontSize=20;strokeWidth=2;entryX=0;entryY=0.5;entryDx=0;entryDy=0;" parent="1" source="gY4HQTh1pNE1RITPi49o-43" target="gY4HQTh1pNE1RITPi49o-11" edge="1">
          <mxGeometry width="50" height="50" relative="1" as="geometry">
            <mxPoint x="622" y="204" as="sourcePoint" />
            <mxPoint x="684" y="230" as="targetPoint" />
          </mxGeometry>
        </mxCell>
        <mxCell id="gY4HQTh1pNE1RITPi49o-64" value="&lt;span style=&quot;background-color: initial; font-size: 20px;&quot;&gt;Wdrożenie aplikacji&lt;/span&gt;" style="text;strokeColor=none;fillColor=none;html=1;fontSize=20;fontStyle=1;verticalAlign=middle;align=center;strokeWidth=2;" parent="1" vertex="1">
          <mxGeometry x="461" y="50" width="100" height="40" as="geometry" />
        </mxCell>
        <mxCell id="gY4HQTh1pNE1RITPi49o-67" value="" style="endArrow=classic;startArrow=classic;html=1;rounded=0;entryX=0;entryY=0.25;entryDx=0;entryDy=0;exitX=0.997;exitY=0.54;exitDx=0;exitDy=0;exitPerimeter=0;fontSize=20;strokeWidth=2;" parent="1" source="gY4HQTh1pNE1RITPi49o-66" target="gY4HQTh1pNE1RITPi49o-5" edge="1">
          <mxGeometry width="50" height="50" relative="1" as="geometry">
            <mxPoint x="111" y="432.5" as="sourcePoint" />
            <mxPoint x="161" y="382.5" as="targetPoint" />
          </mxGeometry>
        </mxCell>
        <mxCell id="gY4HQTh1pNE1RITPi49o-68" value="" style="endArrow=classic;startArrow=classic;html=1;rounded=0;entryX=0;entryY=0.5;entryDx=0;entryDy=0;exitX=1;exitY=0.25;exitDx=0;exitDy=0;fontSize=20;strokeWidth=2;" parent="1" source="gY4HQTh1pNE1RITPi49o-5" target="gY4HQTh1pNE1RITPi49o-33" edge="1">
          <mxGeometry width="50" height="50" relative="1" as="geometry">
            <mxPoint x="761" y="420" as="sourcePoint" />
            <mxPoint x="811" y="370" as="targetPoint" />
          </mxGeometry>
        </mxCell>
        <mxCell id="gY4HQTh1pNE1RITPi49o-70" value="" style="endArrow=classic;startArrow=classic;html=1;rounded=0;entryX=0;entryY=0.75;entryDx=0;entryDy=0;exitX=1;exitY=0.25;exitDx=0;exitDy=0;fontSize=20;strokeWidth=2;" parent="1" source="gY4HQTh1pNE1RITPi49o-69" target="gY4HQTh1pNE1RITPi49o-5" edge="1">
          <mxGeometry width="50" height="50" relative="1" as="geometry">
            <mxPoint x="70" y="328" as="sourcePoint" />
            <mxPoint x="381" y="430" as="targetPoint" />
          </mxGeometry>
        </mxCell>
        <mxCell id="CjUv-Lag4axJxPPeYO3W-7" value="&lt;font style=&quot;font-size: 20px; font-weight: normal;&quot;&gt;Services&lt;/font&gt;" style="swimlane;whiteSpace=wrap;html=1;startSize=23;expand=1;collapsible=0;strokeWidth=2;fillColor=#FFFFFF;" parent="1" vertex="1">
          <mxGeometry x="532" y="380" width="100" height="70" as="geometry" />
        </mxCell>
        <mxCell id="CjUv-Lag4axJxPPeYO3W-8" value="" style="verticalLabelPosition=bottom;sketch=0;html=1;fillColor=#282828;strokeColor=none;verticalAlign=top;pointerEvents=1;align=center;shape=mxgraph.cisco_safe.technology_icons.icon21;rotation=90;strokeWidth=2;" parent="CjUv-Lag4axJxPPeYO3W-7" vertex="1">
          <mxGeometry x="31.5" y="21" width="43" height="50" as="geometry" />
        </mxCell>
        <mxCell id="CjUv-Lag4axJxPPeYO3W-9" value="&lt;font style=&quot;font-size: 20px; font-weight: normal;&quot;&gt;Services&lt;/font&gt;" style="swimlane;whiteSpace=wrap;html=1;startSize=23;expand=1;collapsible=0;strokeWidth=2;" parent="1" vertex="1">
          <mxGeometry x="188" y="313.5" width="100" height="70" as="geometry" />
        </mxCell>
        <mxCell id="CjUv-Lag4axJxPPeYO3W-10" value="" style="verticalLabelPosition=bottom;sketch=0;html=1;fillColor=#282828;strokeColor=none;verticalAlign=top;pointerEvents=1;align=center;shape=mxgraph.cisco_safe.technology_icons.icon21;rotation=90;strokeWidth=2;" parent="CjUv-Lag4axJxPPeYO3W-9" vertex="1">
          <mxGeometry x="28.5" y="20" width="43" height="50" as="geometry" />
        </mxCell>
        <mxCell id="CjUv-Lag4axJxPPeYO3W-14" value="&lt;font style=&quot;font-size: 20px; font-weight: normal;&quot;&gt;Sequrity&lt;/font&gt;" style="swimlane;whiteSpace=wrap;html=1;startSize=23;expand=1;collapsible=0;strokeWidth=2;fillColor=#FFFFFF;" parent="1" vertex="1">
          <mxGeometry x="188" y="505" width="100" height="70" as="geometry" />
        </mxCell>
        <mxCell id="CjUv-Lag4axJxPPeYO3W-12" value="" style="sketch=0;pointerEvents=1;shadow=0;dashed=0;html=1;strokeColor=none;fillColor=#282828;labelPosition=center;verticalLabelPosition=bottom;verticalAlign=top;outlineConnect=0;align=center;shape=mxgraph.office.services.verification_service;strokeWidth=2;fontSize=20;" parent="CjUv-Lag4axJxPPeYO3W-14" vertex="1">
          <mxGeometry x="31" y="27" width="39" height="39.5" as="geometry" />
        </mxCell>
        <mxCell id="CjUv-Lag4axJxPPeYO3W-20" value="" style="sketch=0;pointerEvents=1;shadow=0;dashed=0;html=1;strokeColor=none;fillColor=#282828;labelPosition=center;verticalLabelPosition=bottom;verticalAlign=top;outlineConnect=0;align=center;shape=mxgraph.office.security.lock_with_key_security;strokeWidth=2;fontSize=20;" parent="1" vertex="1">
          <mxGeometry x="954" y="350" width="30" height="33.5" as="geometry" />
        </mxCell>
        <mxCell id="CjUv-Lag4axJxPPeYO3W-24" value="" style="image;sketch=0;aspect=fixed;html=1;points=[];align=center;fontSize=20;image=img/lib/mscae/Docker.svg;strokeWidth=2;" parent="1" vertex="1">
          <mxGeometry x="581" y="522.0000000000001" width="73.17" height="60" as="geometry" />
        </mxCell>
        <mxCell id="MTYXGRcquk4eYqqXAsn6-1" value="API" style="rounded=0;whiteSpace=wrap;html=1;fillColor=none;fontSize=20;strokeWidth=2;" parent="1" vertex="1">
          <mxGeometry x="405" y="201" width="134" height="60" as="geometry" />
        </mxCell>
        <mxCell id="rPdOcXWzsxDz9gOFQGMv-2" value="" style="image;sketch=0;aspect=fixed;html=1;points=[];align=center;fontSize=20;image=img/lib/mscae/Docker.svg;strokeWidth=2;" parent="1" vertex="1">
          <mxGeometry x="910.8299999999999" y="522.0000000000001" width="73.17" height="60" as="geometry" />
        </mxCell>
        <mxCell id="AdhI4QJDiEAVTiuxxj_X-1" value="" style="shape=image;aspect=fixed;image=data:image/svg+xml,PD94bWwgdmVyc2lvbj0iMS4wIiBlbmNvZGluZz0iVVRGLTgiIHN0YW5kYWxvbmU9Im5vIj8+CjwhLS0gQ3JlYXRlZCB3aXRoIElua3NjYXBlIChodHRwOi8vd3d3Lmlua3NjYXBlLm9yZy8pIC0tPgoKPHN2ZwogICB3aWR0aD0iMTEuMjY1MjY3bW0iCiAgIGhlaWdodD0iMTAuOTI5NzczbW0iCiAgIHZpZXdCb3g9IjAgMCAxMS4yNjUyNjcgMTAuOTI5NzczIgogICB2ZXJzaW9uPSIxLjEiCiAgIGlkPSJzdmcxIgogICBpbmtzY2FwZTp2ZXJzaW9uPSIxLjMuMiAoMDkxZTIwZSwgMjAyMy0xMS0yNSwgY3VzdG9tKSIKICAgc29kaXBvZGk6ZG9jbmFtZT0iYXBpLnN2ZyIKICAgeG1sbnM6aW5rc2NhcGU9Imh0dHA6Ly93d3cuaW5rc2NhcGUub3JnL25hbWVzcGFjZXMvaW5rc2NhcGUiCiAgIHhtbG5zOnNvZGlwb2RpPSJodHRwOi8vc29kaXBvZGkuc291cmNlZm9yZ2UubmV0L0RURC9zb2RpcG9kaS0wLmR0ZCIKICAgeG1sbnM9Imh0dHA6Ly93d3cudzMub3JnLzIwMDAvc3ZnIgogICB4bWxuczpzdmc9Imh0dHA6Ly93d3cudzMub3JnLzIwMDAvc3ZnIj4KICA8c29kaXBvZGk6bmFtZWR2aWV3CiAgICAgaWQ9Im5hbWVkdmlldzEiCiAgICAgcGFnZWNvbG9yPSIjZmZmZmZmIgogICAgIGJvcmRlcmNvbG9yPSIjMDAwMDAwIgogICAgIGJvcmRlcm9wYWNpdHk9IjAuMjUiCiAgICAgaW5rc2NhcGU6c2hvd3BhZ2VzaGFkb3c9IjIiCiAgICAgaW5rc2NhcGU6cGFnZW9wYWNpdHk9IjAuMCIKICAgICBpbmtzY2FwZTpwYWdlY2hlY2tlcmJvYXJkPSIwIgogICAgIGlua3NjYXBlOmRlc2tjb2xvcj0iI2QxZDFkMSIKICAgICBpbmtzY2FwZTpkb2N1bWVudC11bml0cz0ibW0iCiAgICAgaW5rc2NhcGU6em9vbT0iMC43NzY4MjM3OSIKICAgICBpbmtzY2FwZTpjeD0iMTQyLjI0NTkiCiAgICAgaW5rc2NhcGU6Y3k9IjQxMC42NDY1NCIKICAgICBpbmtzY2FwZTp3aW5kb3ctd2lkdGg9IjE5MjAiCiAgICAgaW5rc2NhcGU6d2luZG93LWhlaWdodD0iMTA1NyIKICAgICBpbmtzY2FwZTp3aW5kb3cteD0iLTgiCiAgICAgaW5rc2NhcGU6d2luZG93LXk9Ii04IgogICAgIGlua3NjYXBlOndpbmRvdy1tYXhpbWl6ZWQ9IjEiCiAgICAgaW5rc2NhcGU6Y3VycmVudC1sYXllcj0ibGF5ZXIxIiAvPgogIDxkZWZzCiAgICAgaWQ9ImRlZnMxIj4KICAgIDxjbGlwUGF0aAogICAgICAgY2xpcFBhdGhVbml0cz0idXNlclNwYWNlT25Vc2UiCiAgICAgICBpZD0iY2xpcFBhdGgyNjMiPgogICAgICA8cGF0aAogICAgICAgICBkPSJtIDc4LjEyNSw0MC42MjUgaCAzNDEyLjUgViAxODMxLjI1IEggNzguMTI1IFoiCiAgICAgICAgIHRyYW5zZm9ybT0ibWF0cml4KDAuMzQ5MzI2NDgsMCwwLDAuMzQ5MzI2NDgsLTE4Ljg5NDk4NSwzMy4yMTY5NjgpIgogICAgICAgICBjbGlwLXJ1bGU9ImV2ZW5vZGQiCiAgICAgICAgIGlkPSJwYXRoMjYzIiAvPgogICAgPC9jbGlwUGF0aD4KICAgIDxjbGlwUGF0aAogICAgICAgY2xpcFBhdGhVbml0cz0idXNlclNwYWNlT25Vc2UiCiAgICAgICBpZD0iY2xpcFBhdGgyNjUiPgogICAgICA8cGF0aAogICAgICAgICBkPSJtIDc4LjEyNSw0MC42MjUgaCAzNDEyLjUgViAxODMxLjI1IEggNzguMTI1IFoiCiAgICAgICAgIHRyYW5zZm9ybT0ibWF0cml4KDAuMzQ5MzI2NDgsMCwwLDAuMzQ5MzI2NDgsLTE4Ljg5NDk4NSwzMy4yMTY5NjgpIgogICAgICAgICBjbGlwLXJ1bGU9ImV2ZW5vZGQiCiAgICAgICAgIGlkPSJwYXRoMjY1IiAvPgogICAgPC9jbGlwUGF0aD4KICA8L2RlZnM+CiAgPGcKICAgICBpbmtzY2FwZTpsYWJlbD0iV2Fyc3R3YSAxIgogICAgIGlua3NjYXBlOmdyb3VwbW9kZT0ibGF5ZXIiCiAgICAgaWQ9ImxheWVyMSIKICAgICB0cmFuc2Zvcm09InRyYW5zbGF0ZSgtNjcuNDY4NzQ4LC0zOS45NTIwODIpIj4KICAgIDxwYXRoCiAgICAgICBpZD0icGF0aDI2MiIKICAgICAgIGQ9Im0gNTU2LjgzMDAyLDI0OC40NyBjIC0wLjQxMDA0LDAuMDIgLTAuODIwMDEsMC4xMiAtMS4xOCwwLjMgbCAtMTYuMTYwMDMsNy43MTAwMSBjIC0wLjg0OTk4LDAuNDEgLTEuNDY5OTcsMS4xNzk5OSAtMS42Njk5OCwyLjA5IGwgLTQsMTcuMzM5OTkgYyAtMC4xOCwwLjc5OTk5IC0wLjAyLDEuNjUgMC40MDk5NywyLjM0IDAuMDgsMC4wOCAwLjEzMDAxLDAuMTYgMC4xNzk5OSwwLjI2MDAxIGwgMTEuMTkwMDEsMTMuODg5OTggYyAwLjU5MDAyLDAuNzIwMDEgMS40OTAwNSwxLjE2MDAxIDIuNDIwMDQsMS4xNjAwMSBoIDE3LjkyOTk5IGMgMC45Mjk5OSwwIDEuODMwMDIsLTAuNDQgMi40Mjk5OSwtMS4xNjAwMSBsIDExLjE4LC0xMy45MSBjIDAuNTcsLTAuNzI5OTggMC43OTk5OSwtMS42Nzk5OSAwLjU5MDAyLC0yLjU3OTk5IGwgLTMuOTkwMDUsLTE3LjMzOTk5IGMgLTAuMjA5OTYsLTAuOTEwMDEgLTAuODI5OTUsLTEuNjggLTEuNjc5OTksLTIuMDkgTCA1NTguMzMwMDIsMjQ4Ljc3IGMgLTAuNDcwMDMsLTAuMjMwMDEgLTAuOTgwMDQsLTAuMzMgLTEuNSwtMC4zIHoiCiAgICAgICBzdHlsZT0iZmlsbDojMjg3NWUyO2ZpbGwtb3BhY2l0eToxO2ZpbGwtcnVsZTpub256ZXJvO3N0cm9rZTpub25lIgogICAgICAgdHJhbnNmb3JtPSJtYXRyaXgoMC4yNDIzNzExNSwwLDAsMC4yNDIzNzExNSwtNjEuODk2MTcxLC0yMC4yNjg2MTkpIgogICAgICAgY2xpcC1wYXRoPSJ1cmwoI2NsaXBQYXRoMjYzKSIgLz4KICAgIDxwYXRoCiAgICAgICBpZD0icGF0aDI2NCIKICAgICAgIGQ9Im0gNTU3LjAyMDAyLDI1Ni45NTk5OSBjIC0wLjQwMDAyLC0wLjAxIC0xMS40MjAwNCw1LjQxMDAxIC0xMS41Niw1LjY4MDAyIEMgNTQ1LjEwOTk5LDI2My4zMSA1NDIuNTk5OTgsMjc0Ljg4IDU0Mi43NSwyNzUuMTMgYyAwLjA4LDAuMTUgMS44OTAwMSwyLjQ0MDAxIDQuMDEwMDEsNS4wOSBsIDMuODU5OTksNC44Mjk5OSBoIDYuMzQ5OTcgNi4zNTAwNCBMIDU2Ny4zNTk5OSwyODAgbCA0LjA0MDAzLC01LjA0MDAxIC0xLjQxMDAzLC02LjE5OTk4IEwgNTY4LjQ0LDI2Mi40NCBjIC0zLjc3MDAyLC0xLjkxIC03LjU4MDAxLC0zLjczMDAxIC0xMS40MTk5OCwtNS40ODAwMSB6IE0gNTU3LjY5LDI2Mi42MyBjIDAuNTI5OTcsMC4wMiAwLjU5MDAzLDAuODI5OTkgMS43Mjk5OCwwLjkxMDAxIDEuNDg5OTksMC4xMTk5OSAxLjMzMDAyLC0xLjI3MDAyIDIuNDcwMDMsLTAuMzEgMS4xNDAwMiwwLjk3IC0wLjI1LDEuMDM5OTggMC4xLDIuNDg5OTkgMC4zNTk5OSwxLjQ1MDAxIDEuNjMwMDEsMC44NyAxLjA2LDIuMjYwMDEgLTAuNTYsMS4zNzk5OCAtMS4wNiwwLjA3IC0yLjMzOTk3LDAuODU5OTkgLTEuMjcwMDIsMC43OSAtMC4zMjAwMSwxLjgyIC0xLjgxLDEuNzAwMDEgLTEuNDkwMDUsLTAuMTEwMDIgLTAuNDAwMDIsLTAuOTgwMDEgLTEuNTUwMDQsLTEuOTUwMDEgLTEuMTM5OTYsLTAuOTcgLTEuODI5OTYsMC4yNSAtMi4xOCwtMS4xOTk5OSAtMC4zNDk5NywtMS40NjAwMiAwLjgyMDAxLC0wLjY5IDEuMzgwMDEsLTIuMDgwMDEgMC41NzAwMSwtMS4zODAwMSAtMC43OTk5OSwtMS42NjAwMSAwLjQ3MDAzLC0yLjQ0IDAuMTU5OTcsLTAuMTAwMDEgMC4yODk5OCwtMC4xNjk5OSAwLjQwOTk3LC0wLjE5OTk5IDAuMTAwMDQsLTAuMDQgMC4xOCwtMC4wNSAwLjI2MDAxLC0wLjA1IHYgMC4wMSB6IG0gMS40ODk5OSwxLjYzMDAxIGMgLTAuMjE5OTcsMCAtMC40Mjk5OSwwLjAzIC0wLjY0MDAxLDAuMDkgLTEuMTM5OTYsMC4zNSAtMS43ODk5OCwxLjU1OTk5IC0xLjQ0OTk1LDIuNjk5OTggMC4zNDk5NywxLjE1MDAyIDEuNTQ5OTgsMS43OTAwMSAyLjY5OTk1LDEuNDQgMS4xNDAwMSwtMC4zNCAxLjc5MDA0LC0xLjU0OTk5IDEuNDQsLTIuNjkgLTAuMjY5OTYsLTAuOTA5OTggLTEuMDk5OTgsLTEuNTMgLTIuMDQ5OTksLTEuNTM5OTggeiBtIC04LjU0OTk5LDMuNzIgYyAwLjE0MDAyLDAuMDEgMC4yNzk5NywwLjA0IDAuNDE5OTksMC4wOCAxLjM2OTk5LDAuNDIwMDEgLTAuMDIsMS4xNDAwMSAwLjk2MDAyLDIuMTkgMC45Njk5NywxLjA0OTk5IDEuNzg5OTgsLTAuMjkwMDEgMi4xMDk5OSwxLjEwOTk5IDAuMzIsMS40MDAwMiAtMSwwLjU1MDAxIC0xLjQxOTk5LDEuOTIwMDEgLTAuNDE5OTgsMS4zOCAxLjE0OTk3LDEuNDIwMDEgMC4xLDIuMzkwMDEgLTEuMDQ5OTksMC45Nzk5OCAtMC45Nzk5OCwtMC41ODAwMSAtMi4zNywtMC4yNjAwMSAtMS4zOTk5NiwwLjMyMDAxIC0wLjY0OTk2LDEuNjk5OTkgLTIuMDI5OTcsMS4yOCAtMS4zNjk5OSwtMC40MjAwMSAwLjAzLC0xLjE0MDAxIC0wLjk1MDAxLC0yLjIwMDAxIC0wLjk4MDA0LC0xLjA0OTk5IC0xLjc5OTk5LDAuMjkwMDEgLTIuMTE5OTksLTEuMTA5OTkgLTAuMzIwMDEsLTEuMzk5OTkgMSwtMC41NTAwMSAxLjQxOTk4LC0xLjkyMDAxIDAuNDE5OTgsLTEuMzY5OTkgLTEuMTUwMDIsLTEuNDEgLTAuMSwtMi4zODk5OCAxLjA0OTk5LC0wLjk4MDAxIDAuOTc5OTgsMC41ODk5OSAyLjM4MDAxLDAuMjY5OTkgMS4yMTk5NywtMC4yOCAwLjc5OTk5LC0xLjM3IDEuNTk5OTcsLTEuMzU5OTkgeiBtIDEwLjE5MDAxLDEuNSBjIDAuMTMsMC4wMSAwLjI4OTk4LDAuMDQgMC40ODk5OSwwLjEyIDEuNTgwMDEsMC42MDk5OCAtMC41LDEuNTU5OTkgMC43MjAwMywyLjcyOTk4IDEuMjI5OTgsMS4xNzAwMSAyLjA3OTk2LC0wLjk0OTk5IDIuNzY5OTYsMC42IDAuNjc5OTksMS41NTAwMiAtMS40NTk5NiwwLjc1IC0xLjQxOTk5LDIuNDQwMDEgMC4wMywxLjcwMDAxIDIuMTQwMDIsMC44MDAwMSAxLjUyOTk3LDIuMzggLTAuNjE5OTksMS41Nzk5OSAtMS41NTk5OSwtMC41IC0yLjczOTk5LDAuNzMwMDEgLTEuMTY5OTgsMS4yMiAwLjk1MDAyLDIuMDc5OTkgLTAuNTk5OTcsMi43NTk5OCAtMS41NDk5OSwwLjY4MDAyIC0wLjczOTk5LC0xLjQ1OTk5IC0yLjQ0MDAxLC0xLjQxOTk4IC0xLjcwMDAxLDAuMDQgLTAuNzk5OTgsMi4xMzk5OCAtMi4zOCwxLjUxOTk5IC0xLjU5MDAzLC0wLjYwOTk5IDAuNSwtMS41NiAtMC43Mjk5OCwtMi43MzAwMSAtMS4yMjAwMywtMS4xNjk5OSAtMi4wODAwMiwwLjk1MDAxIC0yLjc2MDAxLC0wLjU5OTk4IC0wLjY3OTk5LC0xLjU1MDAyIDEuNDU5OTYsLTAuNzUgMS40MTk5OCwtMi40NCAtMC4wNCwtMS43MDAwMSAtMi4xNDAwMSwtMC44MDAwMiAtMS41Mjk5NywtMi4zODAwMSAwLjYyLC0xLjU4OTk5IDEuNTYsMC41IDIuNzM5OTksLTAuNzMwMDEgMS4xNjk5OSwtMS4yMiAtMC45NTAwMSwtMi4wNjk5OCAwLjU5OTk4LC0yLjc1OTk4IDEuNTQ5OTksLTAuNjgwMDIgMC43NSwxLjQ1OTk5IDIuNDQsMS40MTk5OSAxLjQ3OTk4LC0wLjAzIDAuOTc5OTgsLTEuNjM5OTkgMS44OTAwMiwtMS42Mzk5OSB6IG0gLTExLjA5MDAzLDAuNzI5OTggYyAtMS4xOSwwIC0yLjE1OTk3LDAuOTcgLTIuMTU5OTcsMi4xNzAwMSAwLDEuMTkwMDEgMC45Njk5NywyLjE2MDAxIDIuMTU5OTcsMi4xNjAwMSAxLjIwMDAxLDAgMi4xNjAwMywtMC45NyAyLjE2MDAzLC0yLjE2MDAxIDAsLTEuMjAwMDEgLTAuOTYwMDIsLTIuMTYgLTIuMTYwMDMsLTIuMTcwMDEgeiBtIDkuMzAwMDUsMi4wNzAwMSBjIC0xLjc2MDAxLDAgLTMuMTksMS40Mjk5OSAtMy4xOSwzLjE5IDAsMS43NjAwMSAxLjQyOTk5LDMuMTkgMy4xOSwzLjE5IDEuNzU5OTUsMCAzLjE4OTk0LC0xLjQyOTk5IDMuMTg5OTQsLTMuMTkgMCwtMS43NjAwMSAtMS40Mjk5OSwtMy4xOSAtMy4xODk5NCwtMy4xOSB6IgogICAgICAgc3R5bGU9ImZpbGw6I2ZmZmZmZjtmaWxsLW9wYWNpdHk6MTtmaWxsLXJ1bGU6bm9uemVybztzdHJva2U6bm9uZSIKICAgICAgIHRyYW5zZm9ybT0ibWF0cml4KDAuMjQyMzcxMTUsMCwwLDAuMjQyMzcxMTUsLTYxLjg5NjE3MSwtMjAuMjY4NjE5KSIKICAgICAgIGNsaXAtcGF0aD0idXJsKCNjbGlwUGF0aDI2NSkiIC8+CiAgPC9nPgo8L3N2Zz4K;imageBackground=default;" parent="1" vertex="1">
          <mxGeometry x="509.5" y="240" width="43" height="41" as="geometry" />
        </mxCell>
        <mxCell id="yICzhG3kCYcLRZ-qXSUB-1" value="" style="image;sketch=0;aspect=fixed;html=1;points=[];align=center;fontSize=12;image=img/lib/mscae/Docker.svg;" parent="1" vertex="1">
          <mxGeometry x="937" y="260" width="54" height="44.28" as="geometry" />
        </mxCell>
      </root>
    </mxGraphModel>
  </diagram>
</mxfile>
